<svg xmlns="http://www.w3.org/2000/svg" viewBox="0 0 800 500">
  <defs>
    <radialGradient id="bg3d" cx="50%" cy="50%" r="70%">
      <stop offset="0%" style="stop-color:#111827"/>
      <stop offset="100%" style="stop-color:#000000"/>
    </radialGradient>
    <filter id="glow">
      <feGaussianBlur stdDeviation="2" result="coloredBlur"/>
      <feMerge>
        <feMergeNode in="coloredBlur"/>
        <feMergeNode in="SourceGraphic"/>
      </feMerge>
    </filter>
  </defs>
  <rect width="800" height="500" fill="url(#bg3d)"/>

  <!-- 3D Perspective grid -->
  <g stroke="rgba(255,255,255,0.03)" stroke-width="1" fill="none">
    <ellipse cx="400" cy="350" rx="300" ry="80"/>
    <ellipse cx="400" cy="300" rx="250" ry="65"/>
    <ellipse cx="400" cy="250" rx="200" ry="50"/>
  </g>

  <!-- Deep layer (small, faded) -->
  <g opacity="0.4">
    <circle cx="180" cy="380" r="3" fill="#3b82f6"/>
    <circle cx="220" cy="390" r="2" fill="#10b981"/>
    <circle cx="580" cy="385" r="3" fill="#22d3d3"/>
    <circle cx="620" cy="375" r="2" fill="#f59e0b"/>
    <circle cx="350" cy="395" r="2" fill="#ef4444"/>
    <circle cx="450" cy="390" r="3" fill="#8b5cf6"/>
  </g>

  <!-- Mid layer -->
  <g opacity="0.7">
    <circle cx="250" cy="300" r="4" fill="#3b82f6"/>
    <circle cx="280" cy="290" r="5" fill="#3b82f6"/>
    <circle cx="310" cy="310" r="4" fill="#10b981"/>
    <circle cx="350" cy="280" r="5" fill="#10b981"/>
    <circle cx="400" cy="300" r="4" fill="#22d3d3"/>
    <circle cx="450" cy="285" r="5" fill="#22d3d3"/>
    <circle cx="490" cy="305" r="4" fill="#f59e0b"/>
    <circle cx="530" cy="290" r="5" fill="#f59e0b"/>
    <circle cx="380" cy="320" r="4" fill="#ef4444"/>
    <circle cx="420" cy="310" r="4" fill="#8b5cf6"/>
  </g>

  <!-- Front layer (large, bright) -->
  <g filter="url(#glow)">
    <!-- TKFT -->
    <circle cx="200" cy="180" r="8" fill="#3b82f6"/>
    <circle cx="230" cy="160" r="7" fill="#3b82f6"/>
    <circle cx="260" cy="190" r="6" fill="#3b82f6"/>
    <circle cx="185" cy="210" r="6" fill="#3b82f6"/>

    <!-- Cantor -->
    <circle cx="350" cy="150" r="9" fill="#10b981"/>
    <circle cx="380" cy="170" r="8" fill="#10b981"/>
    <circle cx="330" cy="180" r="7" fill="#10b981"/>
    <circle cx="400" cy="145" r="6" fill="#10b981"/>

    <!-- Geometry -->
    <circle cx="520" cy="160" r="8" fill="#22d3d3"/>
    <circle cx="550" cy="180" r="7" fill="#22d3d3"/>
    <circle cx="580" cy="155" r="8" fill="#22d3d3"/>
    <circle cx="500" cy="190" r="6" fill="#22d3d3"/>

    <!-- Computation -->
    <circle cx="280" cy="240" r="7" fill="#f59e0b"/>
    <circle cx="310" cy="220" r="6" fill="#f59e0b"/>
    <circle cx="250" cy="260" r="6" fill="#f59e0b"/>

    <!-- Discrete -->
    <circle cx="450" cy="200" r="8" fill="#ef4444"/>
    <circle cx="480" cy="220" r="7" fill="#ef4444"/>
    <circle cx="420" cy="230" r="6" fill="#ef4444"/>

    <!-- FixedPoint -->
    <circle cx="340" cy="250" r="6" fill="#8b5cf6"/>
    <circle cx="370" cy="235" r="7" fill="#8b5cf6"/>

    <!-- HeytingTuring -->
    <circle cx="600" cy="200" r="7" fill="#ec4899"/>
    <circle cx="630" cy="180" r="6" fill="#ec4899"/>

    <!-- External -->
    <circle cx="660" cy="130" r="6" fill="#6366f1"/>
    <circle cx="685" cy="150" r="5" fill="#6366f1"/>

    <!-- Fluids -->
    <circle cx="150" cy="250" r="6" fill="#14b8a6"/>
    <circle cx="170" cy="270" r="5" fill="#14b8a6"/>
  </g>

  <!-- Connecting lines (perspective) -->
  <g stroke="rgba(255,255,255,0.6)" stroke-width="2" fill="none">
    <line x1="200" y1="180" x2="350" y2="150"/>
    <line x1="350" y1="150" x2="450" y2="200"/>
    <line x1="520" y1="160" x2="450" y2="200"/>
    <line x1="280" y1="240" x2="340" y2="250"/>
    <line x1="370" y1="235" x2="420" y2="230"/>
    <line x1="200" y1="180" x2="150" y2="250"/>
    <line x1="600" y1="200" x2="660" y2="130"/>
  </g>

  <!-- Title -->
  <text x="400" y="40" fill="#fafafa" font-family="system-ui" font-size="16" font-weight="600" text-anchor="middle">Miranda Dynamics — 3D Proof Map</text>

  <!-- Rotation indicator -->
  <g transform="translate(730, 450)">
    <circle cx="0" cy="0" r="20" fill="none" stroke="rgba(255,255,255,0.2)" stroke-width="2"/>
    <path d="M-15 0 A15 15 0 0 1 15 0" fill="none" stroke="#60a5fa" stroke-width="2"/>
    <polygon points="15,-4 15,4 20,0" fill="#60a5fa"/>
  </g>
  <text x="730" y="490" fill="#6b7280" font-family="system-ui" font-size="10" text-anchor="middle">drag to rotate</text>

  <!-- Stats -->
  <text x="50" y="480" fill="#6b7280" font-family="system-ui" font-size="11">811 declarations • 11 module families • 96 files</text>
  <text x="50" y="40" fill="#60a5fa" font-family="system-ui" font-size="11">▶ Click to explore in 3D</text>
</svg>
