<svg xmlns="http://www.w3.org/2000/svg" viewBox="0 0 800 500">
  <defs>
    <linearGradient id="bg2d" x1="0%" y1="0%" x2="100%" y2="100%">
      <stop offset="0%" style="stop-color:#0a0a0a"/>
      <stop offset="100%" style="stop-color:#000000"/>
    </linearGradient>
  </defs>
  <rect width="800" height="500" fill="url(#bg2d)"/>

  <!-- Grid lines -->
  <g stroke="rgba(255,255,255,0.05)" stroke-width="1">
    <line x1="100" y1="50" x2="100" y2="450"/>
    <line x1="200" y1="50" x2="200" y2="450"/>
    <line x1="300" y1="50" x2="300" y2="450"/>
    <line x1="400" y1="50" x2="400" y2="450"/>
    <line x1="500" y1="50" x2="500" y2="450"/>
    <line x1="600" y1="50" x2="600" y2="450"/>
    <line x1="700" y1="50" x2="700" y2="450"/>
    <line x1="50" y1="100" x2="750" y2="100"/>
    <line x1="50" y1="200" x2="750" y2="200"/>
    <line x1="50" y1="300" x2="750" y2="300"/>
    <line x1="50" y1="400" x2="750" y2="400"/>
  </g>

  <!-- Edges -->
  <g stroke="rgba(255,255,255,0.7)" stroke-width="2" fill="none">
    <path d="M120 110 Q200 150 280 180"/>
    <path d="M350 250 Q400 280 450 260"/>
    <path d="M500 200 Q550 220 600 190"/>
    <path d="M180 350 Q250 380 320 360"/>
    <path d="M420 320 Q480 350 540 330"/>
    <path d="M150 200 Q200 250 250 220"/>
    <path d="M380 150 Q430 180 480 160"/>
    <path d="M550 350 Q600 380 650 360"/>
  </g>

  <!-- TKFT cluster (blue) -->
  <g fill="#3b82f6">
    <circle cx="120" cy="110" r="6"/>
    <circle cx="145" cy="125" r="5"/>
    <circle cx="160" cy="140" r="5"/>
    <circle cx="140" cy="155" r="4"/>
    <circle cx="175" cy="130" r="5"/>
    <circle cx="190" cy="150" r="6"/>
    <circle cx="115" cy="145" r="4"/>
  </g>

  <!-- Cantor cluster (green) -->
  <g fill="#10b981">
    <circle cx="350" cy="250" r="7"/>
    <circle cx="380" cy="265" r="6"/>
    <circle cx="340" cy="235" r="5"/>
    <circle cx="365" cy="280" r="5"/>
    <circle cx="395" cy="245" r="6"/>
    <circle cx="410" cy="270" r="5"/>
    <circle cx="325" cy="260" r="4"/>
    <circle cx="370" cy="220" r="5"/>
  </g>

  <!-- Geometry cluster (cyan) -->
  <g fill="#22d3d3">
    <circle cx="560" cy="200" r="6"/>
    <circle cx="580" cy="185" r="5"/>
    <circle cx="595" cy="210" r="6"/>
    <circle cx="545" cy="215" r="5"/>
    <circle cx="610" cy="195" r="5"/>
    <circle cx="625" cy="220" r="6"/>
    <circle cx="570" cy="230" r="4"/>
    <circle cx="600" cy="240" r="5"/>
    <circle cx="640" cy="205" r="5"/>
  </g>

  <!-- Computation cluster (amber) -->
  <g fill="#f59e0b">
    <circle cx="240" cy="350" r="6"/>
    <circle cx="265" cy="365" r="5"/>
    <circle cx="280" cy="345" r="5"/>
    <circle cx="225" cy="365" r="5"/>
    <circle cx="295" cy="360" r="6"/>
    <circle cx="250" cy="380" r="4"/>
  </g>

  <!-- Discrete cluster (red) -->
  <g fill="#ef4444">
    <circle cx="440" cy="320" r="6"/>
    <circle cx="460" cy="335" r="5"/>
    <circle cx="420" cy="340" r="5"/>
    <circle cx="475" cy="315" r="6"/>
    <circle cx="450" cy="355" r="4"/>
  </g>

  <!-- FixedPoint cluster (purple) -->
  <g fill="#8b5cf6">
    <circle cx="200" cy="220" r="5"/>
    <circle cx="220" cy="235" r="6"/>
    <circle cx="185" cy="240" r="4"/>
    <circle cx="235" cy="215" r="5"/>
  </g>

  <!-- External cluster (indigo) -->
  <g fill="#6366f1">
    <circle cx="680" cy="150" r="5"/>
    <circle cx="695" cy="165" r="6"/>
    <circle cx="710" cy="145" r="5"/>
    <circle cx="665" cy="170" r="4"/>
  </g>

  <!-- Fluids cluster (teal) -->
  <g fill="#14b8a6">
    <circle cx="100" cy="310" r="5"/>
    <circle cx="115" cy="325" r="5"/>
    <circle cx="130" cy="305" r="4"/>
    <circle cx="90" cy="340" r="5"/>
  </g>

  <!-- HeytingTuring cluster (pink) -->
  <g fill="#ec4899">
    <circle cx="320" cy="170" r="5"/>
    <circle cx="340" cy="155" r="6"/>
    <circle cx="305" cy="185" r="4"/>
    <circle cx="355" cy="175" r="5"/>
  </g>

  <!-- Title -->
  <text x="400" y="35" fill="#fafafa" font-family="system-ui" font-size="16" font-weight="600" text-anchor="middle">Miranda Dynamics — 2D Proof Map</text>

  <!-- Legend -->
  <g transform="translate(640, 280)">
    <rect x="0" y="0" width="140" height="200" fill="rgba(10,10,10,0.8)" rx="6"/>
    <text x="12" y="22" fill="#9ca3af" font-family="system-ui" font-size="11">Module Families</text>
    <circle cx="18" cy="42" r="5" fill="#3b82f6"/><text x="30" y="46" fill="#fafafa" font-family="system-ui" font-size="10">TKFT</text>
    <circle cx="18" cy="62" r="5" fill="#10b981"/><text x="30" y="66" fill="#fafafa" font-family="system-ui" font-size="10">Cantor</text>
    <circle cx="18" cy="82" r="5" fill="#22d3d3"/><text x="30" y="86" fill="#fafafa" font-family="system-ui" font-size="10">Geometry</text>
    <circle cx="18" cy="102" r="5" fill="#f59e0b"/><text x="30" y="106" fill="#fafafa" font-family="system-ui" font-size="10">Computation</text>
    <circle cx="18" cy="122" r="5" fill="#ef4444"/><text x="30" y="126" fill="#fafafa" font-family="system-ui" font-size="10">Discrete</text>
    <circle cx="18" cy="142" r="5" fill="#8b5cf6"/><text x="30" y="146" fill="#fafafa" font-family="system-ui" font-size="10">FixedPoint</text>
    <circle cx="18" cy="162" r="5" fill="#ec4899"/><text x="30" y="166" fill="#fafafa" font-family="system-ui" font-size="10">HeytingTuring</text>
    <circle cx="18" cy="182" r="5" fill="#6366f1"/><text x="30" y="186" fill="#fafafa" font-family="system-ui" font-size="10">External</text>
  </g>

  <!-- Stats -->
  <text x="50" y="480" fill="#6b7280" font-family="system-ui" font-size="11">811 declarations • 96 modules • 0 sorries</text>
  <text x="750" y="480" fill="#60a5fa" font-family="system-ui" font-size="11" text-anchor="end">Click to explore →</text>
</svg>
