<?xml version="1.0" encoding="UTF-8"?>
<svg xmlns="http://www.w3.org/2000/svg" width="600" height="400" viewBox="0 0 600 400">
  <defs>
    <radialGradient id="glow" cx="50%" cy="50%" r="50%">
      <stop offset="0%" style="stop-color:#3b82f6;stop-opacity:0.3"/>
      <stop offset="100%" style="stop-color:#0b0f14;stop-opacity:0"/>
    </radialGradient>
  </defs>
  <rect width="600" height="400" fill="#0b0f14"/>
  <ellipse cx="300" cy="200" rx="180" ry="140" fill="url(#glow)">
    <animateTransform attributeName="transform" type="rotate" from="0 300 200" to="360 300 200" dur="20s" repeatCount="indefinite"/>
  </ellipse>
  <text x="10" y="20" fill="#e6eef7" font-family="Arial" font-size="12">Miranda Dynamics: 3D Proof Map</text>
  <text x="10" y="35" fill="#9ca3af" font-family="Arial" font-size="10">1541 declarations (click to explore)</text>
  <g transform="translate(300, 200)">
    <animateTransform attributeName="transform" type="rotate" from="0" to="360" dur="30s" repeatCount="indefinite" additive="sum"/>
    <circle cx="-93" cy="-94" r="3.4831009995196656" fill="#9ca3af" opacity="0.7"/>
    <circle cx="-25" cy="-43" r="2.279075857050288" fill="#9ca3af" opacity="0.7"/>
    <circle cx="-98" cy="73" r="3.4813354893353514" fill="#9ca3af" opacity="0.7"/>
    <circle cx="129" cy="-78" r="3.1809850248980793" fill="#9ca3af" opacity="0.7"/>
    <circle cx="-134" cy="-93" r="2.187390479723185" fill="#9ca3af" opacity="0.7"/>
    <circle cx="-31" cy="29" r="3.2040374580999607" fill="#9ca3af" opacity="0.7"/>
    <circle cx="137" cy="-50" r="3.432039225844807" fill="#9ca3af" opacity="0.7"/>
    <circle cx="129" cy="7" r="2.4408812440813934" fill="#9ca3af" opacity="0.7"/>
    <circle cx="-8" cy="-99" r="3.5176147342595345" fill="#9ca3af" opacity="0.7"/>
    <circle cx="-69" cy="78" r="2.845228796307005" fill="#9ca3af" opacity="0.7"/>
    <circle cx="-8" cy="-61" r="2.4306275242151774" fill="#9ca3af" opacity="0.7"/>
    <circle cx="22" cy="-74" r="2.1854916867602956" fill="#9ca3af" opacity="0.7"/>
    <circle cx="-101" cy="-9" r="3.6949887326949193" fill="#9ca3af" opacity="0.7"/>
    <circle cx="-15" cy="-89" r="3.4594635733876355" fill="#9ca3af" opacity="0.7"/>
    <circle cx="124" cy="-69" r="3.946231527958741" fill="#9ca3af" opacity="0.7"/>
    <circle cx="43" cy="-80" r="3.104081262546454" fill="#9ca3af" opacity="0.7"/>
    <circle cx="35" cy="47" r="2.38457718051332" fill="#9ca3af" opacity="0.7"/>
    <circle cx="-115" cy="-89" r="3.3225266371354203" fill="#9ca3af" opacity="0.7"/>
    <circle cx="-2" cy="-80" r="3.710635442030294" fill="#9ca3af" opacity="0.7"/>
    <circle cx="-99" cy="-3" r="2.5559472062201842" fill="#9ca3af" opacity="0.7"/>
    <circle cx="36" cy="-59" r="2.740361934233765" fill="#10b981" opacity="0.7"/>
    <circle cx="-43" cy="71" r="2.533955644098227" fill="#10b981" opacity="0.7"/>
    <circle cx="-114" cy="55" r="3.2699565763941205" fill="#10b981" opacity="0.7"/>
    <circle cx="123" cy="86" r="2.4896218503028527" fill="#10b981" opacity="0.7"/>
    <circle cx="86" cy="-3" r="2.539895653568556" fill="#10b981" opacity="0.7"/>
    <circle cx="135" cy="-44" r="3.369228501979749" fill="#10b981" opacity="0.7"/>
    <circle cx="-122" cy="-42" r="3.6436051880136167" fill="#10b981" opacity="0.7"/>
    <circle cx="11" cy="2" r="2.5354817519514055" fill="#10b981" opacity="0.7"/>
    <circle cx="-42" cy="45" r="3.752735252945338" fill="#10b981" opacity="0.7"/>
    <circle cx="11" cy="-46" r="3.31087733058976" fill="#10b981" opacity="0.7"/>
    <circle cx="52" cy="64" r="2.9177037051747976" fill="#10b981" opacity="0.7"/>
    <circle cx="-15" cy="-65" r="2.493255015387967" fill="#10b981" opacity="0.7"/>
    <circle cx="137" cy="37" r="2.5254832170458705" fill="#10b981" opacity="0.7"/>
    <circle cx="149" cy="9" r="3.795645767204954" fill="#10b981" opacity="0.7"/>
    <circle cx="54" cy="-8" r="2.438641518314567" fill="#10b981" opacity="0.7"/>
    <circle cx="-80" cy="30" r="2.9870316697792623" fill="#10b981" opacity="0.7"/>
    <circle cx="-126" cy="-72" r="2.3056826386965223" fill="#10b981" opacity="0.7"/>
    <circle cx="-69" cy="74" r="2.844319933599368" fill="#10b981" opacity="0.7"/>
    <circle cx="-118" cy="-2" r="2.7632385730130737" fill="#10b981" opacity="0.7"/>
    <circle cx="89" cy="35" r="2.5028282399636264" fill="#10b981" opacity="0.7"/>
    <circle cx="133" cy="-98" r="3.360566820513037" fill="#10b981" opacity="0.7"/>
    <circle cx="-92" cy="74" r="3.769576900258218" fill="#10b981" opacity="0.7"/>
    <circle cx="-14" cy="96" r="3.281923597159616" fill="#10b981" opacity="0.7"/>
    <circle cx="-93" cy="-25" r="2.86953050133821" fill="#10b981" opacity="0.7"/>
    <circle cx="82" cy="-100" r="3.90763185504216" fill="#10b981" opacity="0.7"/>
    <circle cx="-16" cy="28" r="3.5239243981041293" fill="#10b981" opacity="0.7"/>
    <circle cx="109" cy="-73" r="3.7410371396735336" fill="#10b981" opacity="0.7"/>
    <circle cx="2" cy="63" r="3.0153257639552686" fill="#10b981" opacity="0.7"/>
    <circle cx="-49" cy="-61" r="2.7478277051822957" fill="#10b981" opacity="0.7"/>
    <circle cx="-68" cy="38" r="3.9069994953070055" fill="#10b981" opacity="0.7"/>
    <circle cx="121" cy="-100" r="3.197889168920458" fill="#10b981" opacity="0.7"/>
    <circle cx="100" cy="-96" r="2.22373545064179" fill="#10b981" opacity="0.7"/>
    <circle cx="35" cy="-22" r="2.4789046206761176" fill="#10b981" opacity="0.7"/>
    <circle cx="-27" cy="45" r="3.893898890595988" fill="#10b981" opacity="0.7"/>
    <circle cx="-107" cy="87" r="2.9719809266332273" fill="#10b981" opacity="0.7"/>
    <circle cx="-115" cy="94" r="3.0654123390590313" fill="#10b981" opacity="0.7"/>
    <circle cx="-86" cy="-68" r="3.319501645494735" fill="#10b981" opacity="0.7"/>
    <circle cx="131" cy="-58" r="2.530113257880118" fill="#10b981" opacity="0.7"/>
    <circle cx="66" cy="-46" r="3.857826986004354" fill="#10b981" opacity="0.7"/>
    <circle cx="-48" cy="82" r="2.62343258260179" fill="#10b981" opacity="0.7"/>
    <circle cx="41" cy="12" r="3.799228169285891" fill="#10b981" opacity="0.7"/>
    <circle cx="81" cy="-70" r="2.495811227332016" fill="#10b981" opacity="0.7"/>
    <circle cx="-118" cy="-14" r="2.0420685200141175" fill="#10b981" opacity="0.7"/>
    <circle cx="133" cy="-42" r="3.176880228820702" fill="#10b981" opacity="0.7"/>
    <circle cx="-147" cy="-82" r="3.415681893096908" fill="#10b981" opacity="0.7"/>
    <circle cx="-120" cy="-42" r="2.134800656220615" fill="#10b981" opacity="0.7"/>
    <circle cx="-134" cy="-16" r="2.1417146997773067" fill="#10b981" opacity="0.7"/>
    <circle cx="-29" cy="-29" r="3.3379555565925614" fill="#10b981" opacity="0.7"/>
    <circle cx="-41" cy="38" r="2.26462369745005" fill="#10b981" opacity="0.7"/>
    <circle cx="142" cy="47" r="2.9453420526235883" fill="#10b981" opacity="0.7"/>
    <circle cx="92" cy="4" r="2.380819828723755" fill="#10b981" opacity="0.7"/>
    <circle cx="-101" cy="68" r="2.8621023648127553" fill="#10b981" opacity="0.7"/>
    <circle cx="66" cy="5" r="2.93404933607335" fill="#10b981" opacity="0.7"/>
    <circle cx="-123" cy="72" r="3.306910976531583" fill="#10b981" opacity="0.7"/>
    <circle cx="-100" cy="-85" r="2.8052425642045375" fill="#10b981" opacity="0.7"/>
    <circle cx="23" cy="-73" r="2.4973126678405713" fill="#10b981" opacity="0.7"/>
    <circle cx="-53" cy="37" r="2.897227095666264" fill="#10b981" opacity="0.7"/>
    <circle cx="66" cy="-54" r="2.557090289333881" fill="#10b981" opacity="0.7"/>
    <circle cx="-23" cy="-81" r="2.886261490106914" fill="#10b981" opacity="0.7"/>
    <circle cx="131" cy="-75" r="2.1011766590497625" fill="#10b981" opacity="0.7"/>
    <circle cx="126" cy="-97" r="3.9379925145695025" fill="#10b981" opacity="0.7"/>
    <circle cx="-29" cy="-58" r="2.812828115904944" fill="#10b981" opacity="0.7"/>
    <circle cx="96" cy="-46" r="3.729300788060431" fill="#10b981" opacity="0.7"/>
    <circle cx="-120" cy="-58" r="2.757946237953832" fill="#10b981" opacity="0.7"/>
    <circle cx="49" cy="-33" r="3.853036147118667" fill="#10b981" opacity="0.7"/>
    <circle cx="82" cy="-27" r="2.846014971980326" fill="#10b981" opacity="0.7"/>
    <circle cx="134" cy="69" r="3.436816550592652" fill="#10b981" opacity="0.7"/>
    <circle cx="-71" cy="-52" r="2.5934156509891286" fill="#10b981" opacity="0.7"/>
    <circle cx="-121" cy="48" r="3.471474357578087" fill="#10b981" opacity="0.7"/>
    <circle cx="-119" cy="91" r="2.6272096195394585" fill="#10b981" opacity="0.7"/>
    <circle cx="-125" cy="49" r="2.9535770342178695" fill="#10b981" opacity="0.7"/>
    <circle cx="121" cy="-60" r="2.113759159457369" fill="#10b981" opacity="0.7"/>
    <circle cx="110" cy="-80" r="3.702685090688243" fill="#10b981" opacity="0.7"/>
    <circle cx="-115" cy="52" r="2.1359217267515147" fill="#10b981" opacity="0.7"/>
    <circle cx="-30" cy="3" r="2.2397732278942484" fill="#10b981" opacity="0.7"/>
    <circle cx="141" cy="-37" r="3.157838115014421" fill="#10b981" opacity="0.7"/>
    <circle cx="-130" cy="58" r="2.163966810989751" fill="#10b981" opacity="0.7"/>
    <circle cx="148" cy="44" r="3.0455654310639177" fill="#10b981" opacity="0.7"/>
    <circle cx="-17" cy="-48" r="3.3394519495396584" fill="#10b981" opacity="0.7"/>
    <circle cx="10" cy="-39" r="2.5312290250627076" fill="#10b981" opacity="0.7"/>
    <circle cx="-83" cy="71" r="3.291001577675299" fill="#10b981" opacity="0.7"/>
    <circle cx="84" cy="-20" r="3.8580366634110286" fill="#10b981" opacity="0.7"/>
    <circle cx="-113" cy="-98" r="2.9165710452371725" fill="#10b981" opacity="0.7"/>
    <circle cx="138" cy="-75" r="2.146521442199266" fill="#10b981" opacity="0.7"/>
    <circle cx="-41" cy="29" r="2.5304008295008025" fill="#10b981" opacity="0.7"/>
    <circle cx="28" cy="-83" r="3.7585404849690853" fill="#10b981" opacity="0.7"/>
    <circle cx="39" cy="-28" r="2.315493664714464" fill="#10b981" opacity="0.7"/>
    <circle cx="128" cy="80" r="2.60503428595778" fill="#10b981" opacity="0.7"/>
    <circle cx="120" cy="-98" r="3.335726407425167" fill="#10b981" opacity="0.7"/>
    <circle cx="133" cy="-24" r="3.863512078872155" fill="#10b981" opacity="0.7"/>
    <circle cx="-97" cy="-66" r="2.5289318429742553" fill="#10b981" opacity="0.7"/>
    <circle cx="-96" cy="90" r="3.106447281769632" fill="#10b981" opacity="0.7"/>
    <circle cx="-11" cy="-28" r="3.209659654060448" fill="#10b981" opacity="0.7"/>
    <circle cx="25" cy="-48" r="3.374994257602661" fill="#10b981" opacity="0.7"/>
    <circle cx="-15" cy="29" r="2.977063704298753" fill="#10b981" opacity="0.7"/>
    <circle cx="-124" cy="-77" r="3.2685688946183884" fill="#10b981" opacity="0.7"/>
    <circle cx="-9" cy="-89" r="2.0070913781755646" fill="#10b981" opacity="0.7"/>
    <circle cx="-84" cy="63" r="3.959595907657672" fill="#10b981" opacity="0.7"/>
    <circle cx="-68" cy="89" r="2.883671023721701" fill="#10b981" opacity="0.7"/>
    <circle cx="68" cy="43" r="2.0193393992166797" fill="#10b981" opacity="0.7"/>
    <circle cx="-112" cy="76" r="3.8078571431197865" fill="#10b981" opacity="0.7"/>
    <circle cx="129" cy="-91" r="3.669190039772033" fill="#10b981" opacity="0.7"/>
    <circle cx="148" cy="41" r="2.2961875711349653" fill="#10b981" opacity="0.7"/>
    <circle cx="-85" cy="-90" r="2.6165166998602674" fill="#10b981" opacity="0.7"/>
    <circle cx="-130" cy="-9" r="2.420153076679508" fill="#10b981" opacity="0.7"/>
    <circle cx="-23" cy="70" r="2.2055872433435715" fill="#10b981" opacity="0.7"/>
    <circle cx="136" cy="4" r="3.947674045274578" fill="#10b981" opacity="0.7"/>
    <circle cx="-71" cy="-40" r="3.729211392439928" fill="#10b981" opacity="0.7"/>
    <circle cx="-60" cy="5" r="2.0495727237963774" fill="#10b981" opacity="0.7"/>
    <circle cx="20" cy="100" r="3.861631772096651" fill="#10b981" opacity="0.7"/>
    <circle cx="-23" cy="-32" r="2.3183956859614625" fill="#10b981" opacity="0.7"/>
    <circle cx="-95" cy="-3" r="3.7443335658121795" fill="#10b981" opacity="0.7"/>
    <circle cx="90" cy="-44" r="2.399145660051504" fill="#10b981" opacity="0.7"/>
    <circle cx="85" cy="-11" r="2.610381734677201" fill="#10b981" opacity="0.7"/>
    <circle cx="-34" cy="-43" r="2.047328869402903" fill="#9ca3af" opacity="0.7"/>
    <circle cx="-52" cy="2" r="2.656523902395413" fill="#9ca3af" opacity="0.7"/>
    <circle cx="-115" cy="97" r="2.5582499854437426" fill="#9ca3af" opacity="0.7"/>
    <circle cx="110" cy="2" r="3.3590362367205273" fill="#9ca3af" opacity="0.7"/>
    <circle cx="124" cy="-16" r="3.8784742806494314" fill="#9ca3af" opacity="0.7"/>
    <circle cx="-91" cy="-34" r="2.357135632344927" fill="#9ca3af" opacity="0.7"/>
    <circle cx="-15" cy="-91" r="2.2168050944294224" fill="#9ca3af" opacity="0.7"/>
    <circle cx="72" cy="-12" r="3.4570901213054084" fill="#9ca3af" opacity="0.7"/>
    <circle cx="10" cy="11" r="3.2124177066122863" fill="#9ca3af" opacity="0.7"/>
    <circle cx="111" cy="-71" r="2.7703908666894543" fill="#9ca3af" opacity="0.7"/>
    <circle cx="145" cy="-52" r="2.5094450122771637" fill="#9ca3af" opacity="0.7"/>
    <circle cx="73" cy="-100" r="3.0398406971331706" fill="#9ca3af" opacity="0.7"/>
    <circle cx="125" cy="75" r="3.438859998289691" fill="#9ca3af" opacity="0.7"/>
    <circle cx="-50" cy="-7" r="2.862594799249974" fill="#9ca3af" opacity="0.7"/>
    <circle cx="19" cy="59" r="2.6278312901167196" fill="#9ca3af" opacity="0.7"/>
    <circle cx="-87" cy="84" r="3.8000936701941828" fill="#9ca3af" opacity="0.7"/>
  </g>
</svg>