<svg xmlns="http://www.w3.org/2000/svg" viewBox="0 0 800 500">
  <defs>
    <radialGradient id="bgAnim" cx="50%" cy="50%" r="70%">
      <stop offset="0%" style="stop-color:#111827"/>
      <stop offset="100%" style="stop-color:#000000"/>
    </radialGradient>
    <filter id="glowAnim">
      <feGaussianBlur stdDeviation="2" result="coloredBlur"/>
      <feMerge>
        <feMergeNode in="coloredBlur"/>
        <feMergeNode in="SourceGraphic"/>
      </feMerge>
    </filter>
  </defs>
  <rect width="800" height="500" fill="url(#bgAnim)"/>

  <!-- Animated rotating group -->
  <g transform="translate(400, 250)">
    <animateTransform
      attributeName="transform"
      type="rotate"
      from="0"
      to="360"
      dur="20s"
      repeatCount="indefinite"
      additive="sum"/>

    <!-- Orbital rings -->
    <ellipse cx="0" cy="50" rx="280" ry="70" fill="none" stroke="rgba(255,255,255,0.05)" stroke-width="1">
      <animate attributeName="ry" values="70;75;70" dur="3s" repeatCount="indefinite"/>
    </ellipse>
    <ellipse cx="0" cy="20" rx="220" ry="55" fill="none" stroke="rgba(255,255,255,0.05)" stroke-width="1">
      <animate attributeName="ry" values="55;60;55" dur="4s" repeatCount="indefinite"/>
    </ellipse>

    <!-- TKFT cluster -->
    <g filter="url(#glowAnim)">
      <circle cx="-200" cy="-70" r="8" fill="#3b82f6">
        <animate attributeName="r" values="8;9;8" dur="2s" repeatCount="indefinite"/>
      </circle>
      <circle cx="-170" cy="-90" r="7" fill="#3b82f6"/>
      <circle cx="-140" cy="-60" r="6" fill="#3b82f6"/>
      <circle cx="-185" cy="-40" r="5" fill="#3b82f6"/>
    </g>

    <!-- Cantor cluster -->
    <g filter="url(#glowAnim)">
      <circle cx="-50" cy="-100" r="9" fill="#10b981">
        <animate attributeName="r" values="9;10;9" dur="2.5s" repeatCount="indefinite"/>
      </circle>
      <circle cx="-20" cy="-80" r="8" fill="#10b981"/>
      <circle cx="-70" cy="-70" r="7" fill="#10b981"/>
      <circle cx="0" cy="-105" r="6" fill="#10b981"/>
    </g>

    <!-- Geometry cluster -->
    <g filter="url(#glowAnim)">
      <circle cx="120" cy="-90" r="8" fill="#22d3d3">
        <animate attributeName="r" values="8;9;8" dur="1.8s" repeatCount="indefinite"/>
      </circle>
      <circle cx="150" cy="-70" r="7" fill="#22d3d3"/>
      <circle cx="180" cy="-95" r="8" fill="#22d3d3"/>
      <circle cx="100" cy="-60" r="6" fill="#22d3d3"/>
    </g>

    <!-- Computation cluster -->
    <g filter="url(#glowAnim)">
      <circle cx="-120" cy="-10" r="7" fill="#f59e0b"/>
      <circle cx="-90" cy="-30" r="6" fill="#f59e0b"/>
      <circle cx="-150" cy="10" r="6" fill="#f59e0b"/>
    </g>

    <!-- Discrete cluster -->
    <g filter="url(#glowAnim)">
      <circle cx="50" cy="-50" r="8" fill="#ef4444">
        <animate attributeName="r" values="8;9;8" dur="2.2s" repeatCount="indefinite"/>
      </circle>
      <circle cx="80" cy="-30" r="7" fill="#ef4444"/>
      <circle cx="20" cy="-20" r="6" fill="#ef4444"/>
    </g>

    <!-- FixedPoint cluster -->
    <g filter="url(#glowAnim)">
      <circle cx="-60" cy="0" r="6" fill="#8b5cf6"/>
      <circle cx="-30" cy="-15" r="7" fill="#8b5cf6"/>
    </g>

    <!-- HeytingTuring cluster -->
    <g filter="url(#glowAnim)">
      <circle cx="200" cy="-50" r="7" fill="#ec4899"/>
      <circle cx="230" cy="-70" r="6" fill="#ec4899"/>
    </g>

    <!-- External cluster -->
    <g filter="url(#glowAnim)">
      <circle cx="260" cy="-120" r="6" fill="#6366f1"/>
      <circle cx="285" cy="-100" r="5" fill="#6366f1"/>
    </g>

    <!-- Fluids cluster -->
    <g filter="url(#glowAnim)">
      <circle cx="-250" cy="0" r="6" fill="#14b8a6"/>
      <circle cx="-230" cy="20" r="5" fill="#14b8a6"/>
    </g>

    <!-- Back layer (smaller, more transparent) -->
    <g opacity="0.4">
      <circle cx="-100" cy="80" r="3" fill="#3b82f6"/>
      <circle cx="50" cy="90" r="3" fill="#10b981"/>
      <circle cx="150" cy="75" r="3" fill="#22d3d3"/>
      <circle cx="-50" cy="100" r="3" fill="#f59e0b"/>
      <circle cx="100" cy="95" r="3" fill="#ef4444"/>
    </g>

    <!-- Connecting lines -->
    <g stroke="rgba(255,255,255,0.6)" stroke-width="2" fill="none">
      <line x1="-200" y1="-70" x2="-50" y2="-100"/>
      <line x1="-50" y1="-100" x2="50" y2="-50"/>
      <line x1="120" y1="-90" x2="50" y2="-50"/>
      <line x1="-120" y1="-10" x2="-60" y2="0"/>
      <line x1="-30" y1="-15" x2="20" y2="-20"/>
    </g>
  </g>

  <!-- Title -->
  <text x="400" y="40" fill="#fafafa" font-family="system-ui" font-size="16" font-weight="600" text-anchor="middle">Miranda Dynamics — 3D Proof Map</text>

  <!-- Stats -->
  <text x="50" y="480" fill="#6b7280" font-family="system-ui" font-size="11">811 declarations • Auto-rotating view</text>
  <text x="750" y="480" fill="#60a5fa" font-family="system-ui" font-size="11" text-anchor="end">Click to interact →</text>
</svg>
