<?xml version="1.0" encoding="UTF-8"?>
<svg xmlns="http://www.w3.org/2000/svg" width="600" height="400" viewBox="0 0 600 400">
  <rect width="600" height="400" fill="#0b0f14"/>
  <text x="10" y="20" fill="#e6eef7" font-family="Arial" font-size="12">Miranda Dynamics: 2D Proof Map</text>
  <text x="10" y="35" fill="#9ca3af" font-family="Arial" font-size="10">1541 declarations</text>
  <g>
    <circle cx="462" cy="235" r="3" fill="#22d3d3" opacity="0.8"/>
    <circle cx="463" cy="263" r="3" fill="#22d3d3" opacity="0.8"/>
    <circle cx="463" cy="193" r="3" fill="#22d3d3" opacity="0.8"/>
    <circle cx="485" cy="232" r="3" fill="#22d3d3" opacity="0.8"/>
    <circle cx="458" cy="244" r="3" fill="#22d3d3" opacity="0.8"/>
    <circle cx="480" cy="278" r="3" fill="#22d3d3" opacity="0.8"/>
    <circle cx="500" cy="244" r="3" fill="#22d3d3" opacity="0.8"/>
    <circle cx="433" cy="208" r="3" fill="#22d3d3" opacity="0.8"/>
    <circle cx="480" cy="282" r="3" fill="#22d3d3" opacity="0.8"/>
    <circle cx="471" cy="237" r="3" fill="#22d3d3" opacity="0.8"/>
    <circle cx="494" cy="194" r="3" fill="#22d3d3" opacity="0.8"/>
    <circle cx="454" cy="256" r="3" fill="#22d3d3" opacity="0.8"/>
    <circle cx="511" cy="233" r="3" fill="#22d3d3" opacity="0.8"/>
    <circle cx="487" cy="248" r="3" fill="#22d3d3" opacity="0.8"/>
    <circle cx="506" cy="205" r="3" fill="#22d3d3" opacity="0.8"/>
    <circle cx="496" cy="192" r="3" fill="#22d3d3" opacity="0.8"/>
    <circle cx="343" cy="221" r="3" fill="#22d3d3" opacity="0.8"/>
    <circle cx="425" cy="269" r="3" fill="#22d3d3" opacity="0.8"/>
    <circle cx="501" cy="202" r="3" fill="#22d3d3" opacity="0.8"/>
    <circle cx="509" cy="208" r="3" fill="#22d3d3" opacity="0.8"/>
    <circle cx="475" cy="190" r="3" fill="#10b981" opacity="0.8"/>
    <circle cx="485" cy="226" r="3" fill="#10b981" opacity="0.8"/>
    <circle cx="510" cy="211" r="3" fill="#10b981" opacity="0.8"/>
    <circle cx="511" cy="215" r="3" fill="#10b981" opacity="0.8"/>
    <circle cx="449" cy="177" r="3" fill="#10b981" opacity="0.8"/>
    <circle cx="457" cy="215" r="3" fill="#10b981" opacity="0.8"/>
    <circle cx="467" cy="274" r="3" fill="#10b981" opacity="0.8"/>
    <circle cx="440" cy="164" r="3" fill="#10b981" opacity="0.8"/>
    <circle cx="516" cy="245" r="3" fill="#10b981" opacity="0.8"/>
    <circle cx="504" cy="226" r="3" fill="#10b981" opacity="0.8"/>
    <circle cx="548" cy="196" r="3" fill="#10b981" opacity="0.8"/>
    <circle cx="411" cy="182" r="3" fill="#10b981" opacity="0.8"/>
    <circle cx="525" cy="153" r="3" fill="#10b981" opacity="0.8"/>
    <circle cx="481" cy="208" r="3" fill="#10b981" opacity="0.8"/>
    <circle cx="464" cy="223" r="3" fill="#10b981" opacity="0.8"/>
    <circle cx="507" cy="274" r="3" fill="#10b981" opacity="0.8"/>
    <circle cx="509" cy="180" r="3" fill="#10b981" opacity="0.8"/>
    <circle cx="453" cy="173" r="3" fill="#10b981" opacity="0.8"/>
    <circle cx="525" cy="181" r="3" fill="#10b981" opacity="0.8"/>
    <circle cx="476" cy="223" r="3" fill="#10b981" opacity="0.8"/>
    <circle cx="445" cy="190" r="3" fill="#10b981" opacity="0.8"/>
    <circle cx="391" cy="165" r="3" fill="#10b981" opacity="0.8"/>
    <circle cx="452" cy="213" r="3" fill="#10b981" opacity="0.8"/>
    <circle cx="537" cy="199" r="3" fill="#10b981" opacity="0.8"/>
    <circle cx="492" cy="205" r="3" fill="#10b981" opacity="0.8"/>
    <circle cx="532" cy="228" r="3" fill="#10b981" opacity="0.8"/>
    <circle cx="493" cy="167" r="3" fill="#10b981" opacity="0.8"/>
    <circle cx="523" cy="212" r="3" fill="#10b981" opacity="0.8"/>
    <circle cx="538" cy="199" r="3" fill="#10b981" opacity="0.8"/>
    <circle cx="573" cy="188" r="3" fill="#10b981" opacity="0.8"/>
    <circle cx="556" cy="203" r="3" fill="#10b981" opacity="0.8"/>
    <circle cx="455" cy="163" r="3" fill="#10b981" opacity="0.8"/>
    <circle cx="472" cy="245" r="3" fill="#10b981" opacity="0.8"/>
    <circle cx="519" cy="222" r="3" fill="#10b981" opacity="0.8"/>
    <circle cx="365" cy="222" r="3" fill="#10b981" opacity="0.8"/>
    <circle cx="506" cy="182" r="3" fill="#10b981" opacity="0.8"/>
    <circle cx="449" cy="199" r="3" fill="#10b981" opacity="0.8"/>
    <circle cx="562" cy="166" r="3" fill="#10b981" opacity="0.8"/>
    <circle cx="459" cy="243" r="3" fill="#10b981" opacity="0.8"/>
    <circle cx="458" cy="188" r="3" fill="#10b981" opacity="0.8"/>
    <circle cx="484" cy="160" r="3" fill="#10b981" opacity="0.8"/>
    <circle cx="490" cy="161" r="3" fill="#10b981" opacity="0.8"/>
    <circle cx="522" cy="200" r="3" fill="#10b981" opacity="0.8"/>
    <circle cx="589" cy="208" r="3" fill="#10b981" opacity="0.8"/>
    <circle cx="545" cy="158" r="3" fill="#10b981" opacity="0.8"/>
    <circle cx="474" cy="210" r="3" fill="#10b981" opacity="0.8"/>
    <circle cx="563" cy="146" r="3" fill="#10b981" opacity="0.8"/>
    <circle cx="527" cy="218" r="3" fill="#10b981" opacity="0.8"/>
    <circle cx="553" cy="222" r="3" fill="#10b981" opacity="0.8"/>
    <circle cx="482" cy="183" r="3" fill="#10b981" opacity="0.8"/>
    <circle cx="420" cy="206" r="3" fill="#10b981" opacity="0.8"/>
    <circle cx="470" cy="264" r="3" fill="#10b981" opacity="0.8"/>
    <circle cx="450" cy="210" r="3" fill="#10b981" opacity="0.8"/>
    <circle cx="404" cy="187" r="3" fill="#10b981" opacity="0.8"/>
    <circle cx="492" cy="226" r="3" fill="#10b981" opacity="0.8"/>
    <circle cx="549" cy="198" r="3" fill="#10b981" opacity="0.8"/>
    <circle cx="426" cy="214" r="3" fill="#10b981" opacity="0.8"/>
    <circle cx="504" cy="215" r="3" fill="#10b981" opacity="0.8"/>
    <circle cx="446" cy="236" r="3" fill="#10b981" opacity="0.8"/>
    <circle cx="484" cy="222" r="3" fill="#10b981" opacity="0.8"/>
    <circle cx="541" cy="219" r="3" fill="#10b981" opacity="0.8"/>
    <circle cx="493" cy="268" r="3" fill="#10b981" opacity="0.8"/>
    <circle cx="491" cy="190" r="3" fill="#10b981" opacity="0.8"/>
    <circle cx="485" cy="247" r="3" fill="#10b981" opacity="0.8"/>
    <circle cx="485" cy="216" r="3" fill="#10b981" opacity="0.8"/>
    <circle cx="537" cy="183" r="3" fill="#10b981" opacity="0.8"/>
    <circle cx="397" cy="209" r="3" fill="#10b981" opacity="0.8"/>
    <circle cx="491" cy="180" r="3" fill="#10b981" opacity="0.8"/>
    <circle cx="521" cy="219" r="3" fill="#10b981" opacity="0.8"/>
    <circle cx="432" cy="216" r="3" fill="#10b981" opacity="0.8"/>
    <circle cx="470" cy="152" r="3" fill="#10b981" opacity="0.8"/>
    <circle cx="501" cy="198" r="3" fill="#10b981" opacity="0.8"/>
    <circle cx="444" cy="216" r="3" fill="#10b981" opacity="0.8"/>
    <circle cx="503" cy="181" r="3" fill="#10b981" opacity="0.8"/>
    <circle cx="499" cy="232" r="3" fill="#10b981" opacity="0.8"/>
    <circle cx="445" cy="212" r="3" fill="#10b981" opacity="0.8"/>
    <circle cx="480" cy="272" r="3" fill="#10b981" opacity="0.8"/>
    <circle cx="390" cy="222" r="3" fill="#10b981" opacity="0.8"/>
    <circle cx="465" cy="196" r="3" fill="#10b981" opacity="0.8"/>
    <circle cx="571" cy="199" r="3" fill="#10b981" opacity="0.8"/>
    <circle cx="587" cy="185" r="3" fill="#10b981" opacity="0.8"/>
    <circle cx="496" cy="184" r="3" fill="#10b981" opacity="0.8"/>
    <circle cx="446" cy="201" r="3" fill="#10b981" opacity="0.8"/>
    <circle cx="466" cy="206" r="3" fill="#10b981" opacity="0.8"/>
    <circle cx="378" cy="264" r="3" fill="#10b981" opacity="0.8"/>
    <circle cx="471" cy="255" r="3" fill="#10b981" opacity="0.8"/>
    <circle cx="431" cy="209" r="3" fill="#10b981" opacity="0.8"/>
    <circle cx="590" cy="172" r="3" fill="#10b981" opacity="0.8"/>
    <circle cx="408" cy="182" r="3" fill="#10b981" opacity="0.8"/>
    <circle cx="502" cy="222" r="3" fill="#10b981" opacity="0.8"/>
    <circle cx="541" cy="191" r="3" fill="#10b981" opacity="0.8"/>
    <circle cx="403" cy="186" r="3" fill="#10b981" opacity="0.8"/>
    <circle cx="539" cy="214" r="3" fill="#10b981" opacity="0.8"/>
    <circle cx="386" cy="198" r="3" fill="#10b981" opacity="0.8"/>
    <circle cx="547" cy="268" r="3" fill="#10b981" opacity="0.8"/>
    <circle cx="506" cy="209" r="3" fill="#10b981" opacity="0.8"/>
    <circle cx="420" cy="173" r="3" fill="#10b981" opacity="0.8"/>
    <circle cx="482" cy="216" r="3" fill="#10b981" opacity="0.8"/>
    <circle cx="507" cy="184" r="3" fill="#10b981" opacity="0.8"/>
    <circle cx="424" cy="175" r="3" fill="#10b981" opacity="0.8"/>
    <circle cx="424" cy="220" r="3" fill="#10b981" opacity="0.8"/>
    <circle cx="369" cy="189" r="3" fill="#10b981" opacity="0.8"/>
    <circle cx="501" cy="248" r="3" fill="#10b981" opacity="0.8"/>
    <circle cx="483" cy="232" r="3" fill="#10b981" opacity="0.8"/>
    <circle cx="460" cy="176" r="3" fill="#10b981" opacity="0.8"/>
    <circle cx="447" cy="248" r="3" fill="#10b981" opacity="0.8"/>
    <circle cx="527" cy="215" r="3" fill="#10b981" opacity="0.8"/>
    <circle cx="590" cy="198" r="3" fill="#10b981" opacity="0.8"/>
    <circle cx="509" cy="209" r="3" fill="#10b981" opacity="0.8"/>
    <circle cx="469" cy="274" r="3" fill="#10b981" opacity="0.8"/>
    <circle cx="552" cy="155" r="3" fill="#10b981" opacity="0.8"/>
    <circle cx="460" cy="213" r="3" fill="#10b981" opacity="0.8"/>
    <circle cx="517" cy="156" r="3" fill="#10b981" opacity="0.8"/>
    <circle cx="371" cy="138" r="3" fill="#10b981" opacity="0.8"/>
    <circle cx="465" cy="237" r="3" fill="#22d3d3" opacity="0.8"/>
    <circle cx="485" cy="216" r="3" fill="#22d3d3" opacity="0.8"/>
    <circle cx="410" cy="176" r="3" fill="#22d3d3" opacity="0.8"/>
    <circle cx="484" cy="252" r="3" fill="#22d3d3" opacity="0.8"/>
    <circle cx="516" cy="266" r="3" fill="#22d3d3" opacity="0.8"/>
    <circle cx="459" cy="284" r="3" fill="#22d3d3" opacity="0.8"/>
    <circle cx="462" cy="219" r="3" fill="#22d3d3" opacity="0.8"/>
    <circle cx="444" cy="222" r="3" fill="#22d3d3" opacity="0.8"/>
    <circle cx="365" cy="246" r="3" fill="#22d3d3" opacity="0.8"/>
    <circle cx="481" cy="229" r="3" fill="#22d3d3" opacity="0.8"/>
    <circle cx="434" cy="252" r="3" fill="#22d3d3" opacity="0.8"/>
    <circle cx="551" cy="242" r="3" fill="#22d3d3" opacity="0.8"/>
    <circle cx="444" cy="222" r="3" fill="#22d3d3" opacity="0.8"/>
    <circle cx="465" cy="200" r="3" fill="#22d3d3" opacity="0.8"/>
    <circle cx="463" cy="243" r="3" fill="#22d3d3" opacity="0.8"/>
    <circle cx="557" cy="271" r="3" fill="#22d3d3" opacity="0.8"/>
    <circle cx="518" cy="218" r="3" fill="#22d3d3" opacity="0.8"/>
    <circle cx="501" cy="204" r="3" fill="#22d3d3" opacity="0.8"/>
    <circle cx="484" cy="254" r="3" fill="#22d3d3" opacity="0.8"/>
    <circle cx="432" cy="305" r="3" fill="#22d3d3" opacity="0.8"/>
    <circle cx="496" cy="180" r="3" fill="#22d3d3" opacity="0.8"/>
    <circle cx="495" cy="228" r="3" fill="#22d3d3" opacity="0.8"/>
    <circle cx="469" cy="255" r="3" fill="#22d3d3" opacity="0.8"/>
    <circle cx="487" cy="175" r="3" fill="#22d3d3" opacity="0.8"/>
    <circle cx="413" cy="265" r="3" fill="#22d3d3" opacity="0.8"/>
    <circle cx="531" cy="301" r="3" fill="#22d3d3" opacity="0.8"/>
    <circle cx="555" cy="175" r="3" fill="#22d3d3" opacity="0.8"/>
    <circle cx="506" cy="179" r="3" fill="#22d3d3" opacity="0.8"/>
    <circle cx="546" cy="249" r="3" fill="#22d3d3" opacity="0.8"/>
    <circle cx="414" cy="305" r="3" fill="#22d3d3" opacity="0.8"/>
    <circle cx="500" cy="180" r="3" fill="#22d3d3" opacity="0.8"/>
    <circle cx="483" cy="217" r="3" fill="#22d3d3" opacity="0.8"/>
    <circle cx="474" cy="226" r="3" fill="#22d3d3" opacity="0.8"/>
    <circle cx="535" cy="195" r="3" fill="#22d3d3" opacity="0.8"/>
    <circle cx="484" cy="299" r="3" fill="#22d3d3" opacity="0.8"/>
    <circle cx="429" cy="247" r="3" fill="#22d3d3" opacity="0.8"/>
    <circle cx="478" cy="218" r="3" fill="#22d3d3" opacity="0.8"/>
    <circle cx="500" cy="244" r="3" fill="#22d3d3" opacity="0.8"/>
    <circle cx="423" cy="297" r="3" fill="#22d3d3" opacity="0.8"/>
    <circle cx="507" cy="235" r="3" fill="#22d3d3" opacity="0.8"/>
    <circle cx="438" cy="215" r="3" fill="#22d3d3" opacity="0.8"/>
    <circle cx="528" cy="236" r="3" fill="#22d3d3" opacity="0.8"/>
    <circle cx="491" cy="235" r="3" fill="#22d3d3" opacity="0.8"/>
    <circle cx="498" cy="237" r="3" fill="#22d3d3" opacity="0.8"/>
    <circle cx="505" cy="235" r="3" fill="#22d3d3" opacity="0.8"/>
    <circle cx="508" cy="262" r="3" fill="#22d3d3" opacity="0.8"/>
    <circle cx="463" cy="213" r="3" fill="#22d3d3" opacity="0.8"/>
    <circle cx="424" cy="217" r="3" fill="#22d3d3" opacity="0.8"/>
    <circle cx="421" cy="268" r="3" fill="#22d3d3" opacity="0.8"/>
    <circle cx="466" cy="291" r="3" fill="#22d3d3" opacity="0.8"/>
    <circle cx="578" cy="241" r="3" fill="#22d3d3" opacity="0.8"/>
    <circle cx="394" cy="228" r="3" fill="#22d3d3" opacity="0.8"/>
    <circle cx="465" cy="193" r="3" fill="#22d3d3" opacity="0.8"/>
    <circle cx="457" cy="250" r="3" fill="#22d3d3" opacity="0.8"/>
    <circle cx="447" cy="216" r="3" fill="#22d3d3" opacity="0.8"/>
    <circle cx="432" cy="298" r="3" fill="#22d3d3" opacity="0.8"/>
    <circle cx="461" cy="214" r="3" fill="#22d3d3" opacity="0.8"/>
    <circle cx="451" cy="271" r="3" fill="#22d3d3" opacity="0.8"/>
    <circle cx="436" cy="256" r="3" fill="#22d3d3" opacity="0.8"/>
    <circle cx="504" cy="265" r="3" fill="#22d3d3" opacity="0.8"/>
    <circle cx="536" cy="223" r="3" fill="#22d3d3" opacity="0.8"/>
    <circle cx="523" cy="215" r="3" fill="#22d3d3" opacity="0.8"/>
    <circle cx="450" cy="279" r="3" fill="#22d3d3" opacity="0.8"/>
    <circle cx="508" cy="241" r="3" fill="#22d3d3" opacity="0.8"/>
    <circle cx="411" cy="259" r="3" fill="#22d3d3" opacity="0.8"/>
    <circle cx="438" cy="211" r="3" fill="#22d3d3" opacity="0.8"/>
  </g>
</svg>