<svg xmlns="http://www.w3.org/2000/svg" viewBox="0 0 800 400">
  <rect width="800" height="400" fill="#000"/>

  <!-- Title -->
  <text x="400" y="30" fill="#fafafa" font-family="system-ui" font-size="14" font-weight="600" text-anchor="middle">Proof Term DAG — encodeTape_injective</text>

  <!-- Root node (App) -->
  <rect x="280" y="50" width="240" height="32" rx="6" fill="#3b82f6"/>
  <text x="400" y="71" fill="#fff" font-family="monospace" font-size="11" text-anchor="middle">Function.Injective.intro</text>

  <!-- Arrow to lambda -->
  <line x1="400" y1="82" x2="400" y2="105" stroke="rgba(255,255,255,0.4)" stroke-width="2"/>
  <polygon points="400,115 395,105 405,105" fill="rgba(255,255,255,0.4)"/>

  <!-- Lambda node (rotated diamond shape simulated) -->
  <rect x="320" y="120" width="160" height="32" rx="6" fill="#8b5cf6"/>
  <text x="400" y="141" fill="#fff" font-family="monospace" font-size="11" text-anchor="middle">λ t₁ t₂ h =></text>

  <!-- Arrow to funext -->
  <line x1="400" y1="152" x2="400" y2="175" stroke="rgba(255,255,255,0.4)" stroke-width="2"/>
  <polygon points="400,185 395,175 405,175" fill="rgba(255,255,255,0.4)"/>

  <!-- App node -->
  <rect x="320" y="190" width="160" height="32" rx="6" fill="#3b82f6"/>
  <text x="400" y="211" fill="#fff" font-family="monospace" font-size="11" text-anchor="middle">funext</text>

  <!-- Arrow to inner lambda -->
  <line x1="400" y1="222" x2="400" y2="245" stroke="rgba(255,255,255,0.4)" stroke-width="2"/>
  <polygon points="400,255 395,245 405,245" fill="rgba(255,255,255,0.4)"/>

  <!-- Inner lambda -->
  <rect x="320" y="260" width="160" height="32" rx="6" fill="#8b5cf6"/>
  <text x="400" y="281" fill="#fff" font-family="monospace" font-size="11" text-anchor="middle">λ k =></text>

  <!-- Branch arrows to vars -->
  <line x1="360" y1="292" x2="360" y2="305" stroke="rgba(255,255,255,0.4)" stroke-width="2"/>
  <line x1="360" y1="305" x2="250" y2="305" stroke="rgba(255,255,255,0.4)" stroke-width="2"/>
  <line x1="250" y1="305" x2="250" y2="320" stroke="rgba(255,255,255,0.4)" stroke-width="2"/>
  <polygon points="250,330 245,320 255,320" fill="rgba(255,255,255,0.4)"/>

  <line x1="440" y1="292" x2="440" y2="305" stroke="rgba(255,255,255,0.4)" stroke-width="2"/>
  <line x1="440" y1="305" x2="550" y2="305" stroke="rgba(255,255,255,0.4)" stroke-width="2"/>
  <line x1="550" y1="305" x2="550" y2="320" stroke="rgba(255,255,255,0.4)" stroke-width="2"/>
  <polygon points="550,330 545,320 555,320" fill="rgba(255,255,255,0.4)"/>

  <!-- App node in middle -->
  <rect x="320" y="335" width="160" height="32" rx="6" fill="#3b82f6"/>
  <text x="400" y="356" fill="#fff" font-family="monospace" font-size="10" text-anchor="middle">digit_eq_of_encode_eq</text>

  <!-- Var nodes -->
  <circle cx="250" cy="355" r="20" fill="#22c55e"/>
  <text x="250" y="360" fill="#fff" font-family="monospace" font-size="11" text-anchor="middle">h</text>

  <circle cx="550" cy="355" r="20" fill="#22c55e"/>
  <text x="550" y="360" fill="#fff" font-family="monospace" font-size="11" text-anchor="middle">k</text>

  <!-- Legend -->
  <g transform="translate(50, 50)">
    <rect x="0" y="0" width="100" height="90" fill="rgba(10,10,10,0.8)" rx="4"/>
    <rect x="12" y="12" width="14" height="14" rx="3" fill="#3b82f6"/>
    <text x="32" y="23" fill="#fafafa" font-family="system-ui" font-size="10">App</text>
    <rect x="12" y="32" width="14" height="14" rx="3" fill="#8b5cf6"/>
    <text x="32" y="43" fill="#fafafa" font-family="system-ui" font-size="10">Lambda</text>
    <circle cx="19" cy="59" r="7" fill="#22c55e"/>
    <text x="32" y="63" fill="#fafafa" font-family="system-ui" font-size="10">Var</text>
    <rect x="12" y="72" width="14" height="14" rx="3" fill="#f59e0b"/>
    <text x="32" y="83" fill="#fafafa" font-family="system-ui" font-size="10">Const</text>
  </g>

  <text x="750" y="385" fill="#60a5fa" font-family="system-ui" font-size="11" text-anchor="end">Click to explore →</text>
</svg>
