<svg xmlns="http://www.w3.org/2000/svg" viewBox="0 0 800 400">
  <rect width="800" height="400" fill="#000"/>

  <!-- Title -->
  <text x="400" y="30" fill="#fafafa" font-family="system-ui" font-size="14" font-weight="600" text-anchor="middle">Tactic Flow — encodeTape_injective</text>

  <!-- Goal node -->
  <rect x="250" y="50" width="300" height="32" rx="6" fill="#3b82f6"/>
  <text x="400" y="71" fill="#fff" font-family="monospace" font-size="11" text-anchor="middle">⊢ Function.Injective encodeTape</text>

  <!-- Arrow -->
  <line x1="400" y1="82" x2="400" y2="105" stroke="rgba(255,255,255,0.4)" stroke-width="2"/>
  <polygon points="400,115 395,105 405,105" fill="rgba(255,255,255,0.4)"/>

  <!-- Tactic node -->
  <rect x="280" y="120" width="240" height="32" rx="6" fill="#f59e0b"/>
  <text x="400" y="141" fill="#000" font-family="monospace" font-size="11" text-anchor="middle">intro t₁ t₂ h</text>

  <!-- Branch arrows -->
  <line x1="340" y1="152" x2="340" y2="165" stroke="rgba(255,255,255,0.4)" stroke-width="2"/>
  <line x1="340" y1="165" x2="220" y2="165" stroke="rgba(255,255,255,0.4)" stroke-width="2"/>
  <line x1="220" y1="165" x2="220" y2="180" stroke="rgba(255,255,255,0.4)" stroke-width="2"/>
  <polygon points="220,190 215,180 225,180" fill="rgba(255,255,255,0.4)"/>

  <line x1="460" y1="152" x2="460" y2="165" stroke="rgba(255,255,255,0.4)" stroke-width="2"/>
  <line x1="460" y1="165" x2="580" y2="165" stroke="rgba(255,255,255,0.4)" stroke-width="2"/>
  <line x1="580" y1="165" x2="580" y2="180" stroke="rgba(255,255,255,0.4)" stroke-width="2"/>
  <polygon points="580,190 575,180 585,180" fill="rgba(255,255,255,0.4)"/>

  <!-- Hypothesis node -->
  <rect x="100" y="195" width="240" height="32" rx="6" fill="#10b981"/>
  <text x="220" y="216" fill="#fff" font-family="monospace" font-size="10" text-anchor="middle">h : encodeTape t₁ = encodeTape t₂</text>

  <!-- Goal node -->
  <rect x="460" y="195" width="240" height="32" rx="6" fill="#3b82f6"/>
  <text x="580" y="216" fill="#fff" font-family="monospace" font-size="11" text-anchor="middle">⊢ t₁ = t₂</text>

  <!-- More arrows -->
  <line x1="580" y1="227" x2="580" y2="250" stroke="rgba(255,255,255,0.4)" stroke-width="2"/>
  <polygon points="580,260 575,250 585,250" fill="rgba(255,255,255,0.4)"/>

  <!-- ext k tactic -->
  <rect x="500" y="265" width="160" height="32" rx="6" fill="#f59e0b"/>
  <text x="580" y="286" fill="#000" font-family="monospace" font-size="11" text-anchor="middle">ext k</text>

  <!-- Final goal -->
  <line x1="580" y1="297" x2="580" y2="315" stroke="rgba(255,255,255,0.4)" stroke-width="2"/>
  <polygon points="580,325 575,315 585,315" fill="rgba(255,255,255,0.4)"/>

  <rect x="480" y="330" width="200" height="32" rx="6" fill="#3b82f6"/>
  <text x="580" y="351" fill="#fff" font-family="monospace" font-size="11" text-anchor="middle">⊢ t₁ k = t₂ k</text>

  <!-- Legend -->
  <g transform="translate(50, 330)">
    <rect x="0" y="0" width="140" height="60" fill="rgba(10,10,10,0.8)" rx="4"/>
    <circle cx="15" cy="15" r="5" fill="#3b82f6"/><text x="28" y="19" fill="#fafafa" font-family="system-ui" font-size="10">Goal</text>
    <circle cx="15" cy="35" r="5" fill="#10b981"/><text x="28" y="39" fill="#fafafa" font-family="system-ui" font-size="10">Hypothesis</text>
    <circle cx="80" cy="15" r="5" fill="#f59e0b"/><text x="93" y="19" fill="#fafafa" font-family="system-ui" font-size="10">Tactic</text>
    <circle cx="80" cy="35" r="5" fill="#8b5cf6"/><text x="93" y="39" fill="#fafafa" font-family="system-ui" font-size="10">Simp</text>
  </g>

  <text x="750" y="385" fill="#60a5fa" font-family="system-ui" font-size="11" text-anchor="end">Click to explore →</text>
</svg>
